{
    "header": {
      "PPQ": 96,
      "timeSignature": [
        4,
        4
      ],
      "bpm": 120,
      "name": ""
    },
    "startTime": 0,
    "duration": 15.583333333333334,
    "tracks": [
      {
        "startTime": 0,
        "duration": 15.583333333333334,
        "length": 52,
        "notes": [
          {
            "name": "F4",
            "midi": 65,
            "time": 0,
            "velocity": 0.952755905511811,
            "duration": 0.34375
          },
          {
            "name": "F4",
            "midi": 65,
            "time": 0.5,
            "velocity": 0.9448818897637795,
            "duration": 0.22916666666666663
          },
          {
            "name": "D#4",
            "midi": 63,
            "time": 0.75,
            "velocity": 0.9448818897637795,
            "duration": 0.7083333333333335
          },
          {
            "name": "G#3",
            "midi": 56,
            "time": 1.5000000000000002,
            "velocity": 0.9763779527559056,
            "duration": 0.11458333333333326
          },
          {
            "name": "A#3",
            "midi": 58,
            "time": 1.6250000000000002,
            "velocity": 0.9448818897637795,
            "duration": 0.11458333333333326
          },
          {
            "name": "C#4",
            "midi": 61,
            "time": 1.7500000000000002,
            "velocity": 0.9448818897637795,
            "duration": 0.11458333333333326
          },
          {
            "name": "A#3",
            "midi": 58,
            "time": 1.8750000000000002,
            "velocity": 0.9763779527559056,
            "duration": 0.11458333333333326
          },
          {
            "name": "D#4",
            "midi": 63,
            "time": 2,
            "velocity": 0.968503937007874,
            "duration": 0.34375
          },
          {
            "name": "D#4",
            "midi": 63,
            "time": 2.5,
            "velocity": 0.937007874015748,
            "duration": 0.22916666666666652
          },
          {
            "name": "C#4",
            "midi": 61,
            "time": 2.75,
            "velocity": 0.952755905511811,
            "duration": 0.34375
          },
          {
            "name": "C4",
            "midi": 60,
            "time": 3.125,
            "velocity": 0.9448818897637795,
            "duration": 0.11458333333333348
          },
          {
            "name": "A#3",
            "midi": 58,
            "time": 3.25,
            "velocity": 0.9448818897637795,
            "duration": 0.22916666666666652
          },
          {
            "name": "G#3",
            "midi": 56,
            "time": 3.5,
            "velocity": 0.952755905511811,
            "duration": 0.11458333333333348
          },
          {
            "name": "A#3",
            "midi": 58,
            "time": 3.625,
            "velocity": 0.968503937007874,
            "duration": 0.11458333333333348
          },
          {
            "name": "C#4",
            "midi": 61,
            "time": 3.75,
            "velocity": 0.968503937007874,
            "duration": 0.11458333333333348
          },
          {
            "name": "A#3",
            "midi": 58,
            "time": 3.875,
            "velocity": 0.968503937007874,
            "duration": 0.11458333333333348
          },
          {
            "name": "C#4",
            "midi": 61,
            "time": 4,
            "velocity": 0.937007874015748,
            "duration": 0.45833333333333304
          },
          {
            "name": "D#4",
            "midi": 63,
            "time": 4.5,
            "velocity": 0.937007874015748,
            "duration": 0.22916666666666696
          },
          {
            "name": "C4",
            "midi": 60,
            "time": 4.75,
            "velocity": 0.952755905511811,
            "duration": 0.34375
          },
          {
            "name": "A#3",
            "midi": 58,
            "time": 5.125,
            "velocity": 0.937007874015748,
            "duration": 0.11458333333333304
          },
          {
            "name": "G#3",
            "midi": 56,
            "time": 5.25,
            "velocity": 0.952755905511811,
            "duration": 0.22916666666666696
          },
          {
            "name": "G#3",
            "midi": 56,
            "time": 5.5,
            "velocity": 0.952755905511811,
            "duration": 0.22916666666666696
          },
          {
            "name": "D#4",
            "midi": 63,
            "time": 5.75,
            "velocity": 0.968503937007874,
            "duration": 0.708333333333333
          },
          {
            "name": "C#4",
            "midi": 61,
            "time": 6.5,
            "velocity": 0.9448818897637795,
            "duration": 0.958333333333333
          },
          {
            "name": "G#3",
            "midi": 56,
            "time": 7.5,
            "velocity": 0.952755905511811,
            "duration": 0.11458333333333304
          },
          {
            "name": "A#3",
            "midi": 58,
            "time": 7.625,
            "velocity": 0.9763779527559056,
            "duration": 0.11458333333333304
          },
          {
            "name": "C#4",
            "midi": 61,
            "time": 7.75,
            "velocity": 0.9763779527559056,
            "duration": 0.11458333333333304
          },
          {
            "name": "A#3",
            "midi": 58,
            "time": 7.875,
            "velocity": 0.9606299212598425,
            "duration": 0.11458333333333304
          },
          {
            "name": "F4",
            "midi": 65,
            "time": 8,
            "velocity": 0.952755905511811,
            "duration": 0.34375
          },
          {
            "name": "F4",
            "midi": 65,
            "time": 8.5,
            "velocity": 0.9763779527559056,
            "duration": 0.22916666666666607
          },
          {
            "name": "D#4",
            "midi": 63,
            "time": 8.75,
            "velocity": 0.9448818897637795,
            "duration": 0.7083333333333339
          },
          {
            "name": "G#3",
            "midi": 56,
            "time": 9.5,
            "velocity": 0.952755905511811,
            "duration": 0.11458333333333393
          },
          {
            "name": "A#3",
            "midi": 58,
            "time": 9.625,
            "velocity": 0.968503937007874,
            "duration": 0.11458333333333393
          },
          {
            "name": "C#4",
            "midi": 61,
            "time": 9.75,
            "velocity": 0.9763779527559056,
            "duration": 0.11458333333333393
          },
          {
            "name": "A#3",
            "midi": 58,
            "time": 9.875,
            "velocity": 0.952755905511811,
            "duration": 0.11458333333333393
          },
          {
            "name": "G#4",
            "midi": 68,
            "time": 10,
            "velocity": 0.9448818897637795,
            "duration": 0.4583333333333339
          },
          {
            "name": "C4",
            "midi": 60,
            "time": 10.5,
            "velocity": 0.968503937007874,
            "duration": 0.22916666666666607
          },
          {
            "name": "C#4",
            "midi": 61,
            "time": 10.75,
            "velocity": 0.968503937007874,
            "duration": 0.34375
          },
          {
            "name": "C4",
            "midi": 60,
            "time": 11.125,
            "velocity": 0.9606299212598425,
            "duration": 0.11458333333333393
          },
          {
            "name": "A#3",
            "midi": 58,
            "time": 11.25,
            "velocity": 0.952755905511811,
            "duration": 0.22916666666666607
          },
          {
            "name": "G#3",
            "midi": 56,
            "time": 11.5,
            "velocity": 0.9606299212598425,
            "duration": 0.11458333333333393
          },
          {
            "name": "A#3",
            "midi": 58,
            "time": 11.625,
            "velocity": 0.968503937007874,
            "duration": 0.11458333333333393
          },
          {
            "name": "C#4",
            "midi": 61,
            "time": 11.75,
            "velocity": 0.937007874015748,
            "duration": 0.11458333333333393
          },
          {
            "name": "A#3",
            "midi": 58,
            "time": 11.875,
            "velocity": 0.9448818897637795,
            "duration": 0.11458333333333393
          },
          {
            "name": "C#4",
            "midi": 61,
            "time": 12,
            "velocity": 0.952755905511811,
            "duration": 0.4583333333333339
          },
          {
            "name": "D#4",
            "midi": 63,
            "time": 12.5,
            "velocity": 0.937007874015748,
            "duration": 0.22916666666666607
          },
          {
            "name": "C4",
            "midi": 60,
            "time": 12.75,
            "velocity": 0.9448818897637795,
            "duration": 0.34375
          },
          {
            "name": "A#3",
            "midi": 58,
            "time": 13.125,
            "velocity": 0.968503937007874,
            "duration": 0.11458333333333393
          },
          {
            "name": "G#3",
            "midi": 56,
            "time": 13.25,
            "velocity": 0.937007874015748,
            "duration": 0.34375
          },
          {
            "name": "G#3",
            "midi": 56,
            "time": 13.75,
            "velocity": 0.9448818897637795,
            "duration": 0.22916666666666607
          },
          {
            "name": "D#4",
            "midi": 63,
            "time": 14,
            "velocity": 0.968503937007874,
            "duration": 0.4583333333333339
          },
          {
            "name": "C#4",
            "midi": 61,
            "time": 14.5,
            "velocity": 0.968503937007874,
            "duration": 1.083333333333334
          }
        ],
        "controlChanges": {},
        "id": 0,
        "name": "",
        "channelNumber": 0,
        "isPercussion": false
      }
    ]
  } 